<?xml version="1.0" encoding="UTF-8"?>
<svg xmlns="http://www.w3.org/2000/svg" viewBox="0 0 1254 1254" width="1254" height="1254">
  <title>Bunny Path Safari Pinned Tab Icon</title>
  <path fill="#000000" fill-rule="evenodd" d="M898.0 261.0 L876.0 253.0 L857.0 253.0 L827.0 261.0 L793.0 280.0 L756.0 314.0 L733.0 348.0 L718.0 386.0 L712.0 387.0 L691.0 373.0 L671.0 373.0 L703.0 317.0 L718.0 266.0 L718.0 213.0 L706.0 180.0 L687.0 160.0 L657.0 155.0 L622.0 172.0 L595.0 202.0 L573.0 246.0 L561.0 287.0 L559.0 344.0 L570.0 385.0 L531.0 410.0 L506.0 439.0 L487.0 474.0 L472.0 520.0 L459.0 534.0 L458.0 545.0 L448.0 545.0 L439.0 525.0 L420.0 516.0 L387.0 524.0 L380.0 539.0 L372.0 543.0 L365.0 554.0 L365.0 569.0 L377.0 604.0 L389.0 617.0 L410.0 667.0 L440.0 704.0 L481.0 736.0 L467.0 783.0 L458.0 784.0 L447.0 779.0 L411.0 783.0 L390.0 811.0 L389.0 830.0 L395.0 848.0 L410.0 870.0 L439.0 897.0 L461.0 904.0 L484.0 904.0 L528.0 892.0 L616.0 894.0 L668.0 888.0 L745.0 906.0 L768.0 906.0 L791.0 899.0 L829.0 863.0 L842.0 835.0 L840.0 806.0 L826.0 786.0 L813.0 781.0 L788.0 779.0 L792.0 757.0 L787.0 730.0 L774.0 703.0 L757.0 686.0 L757.0 682.0 L778.0 669.0 L784.0 656.0 L796.0 649.0 L798.0 634.0 L806.0 631.0 L801.0 608.0 L806.0 580.0 L813.0 573.0 L804.0 500.0 L791.0 460.0 L842.0 437.0 L868.0 416.0 L889.0 391.0 L912.0 348.0 L920.0 318.0 L919.0 292.0 L913.0 277.0 Z
  M913.0 929.0 L914.0 945.0 L916.0 947.0 L916.0 950.0 L918.0 952.0 L919.0 956.0 L921.0 957.0 L923.0 962.0 L930.0 970.0 L946.0 984.0 L951.0 984.0 L957.0 982.0 L960.0 979.0 L978.0 968.0 L992.0 954.0 L997.0 944.0 L997.0 933.0 L995.0 927.0 L991.0 922.0 L985.0 918.0 L974.0 917.0 L966.0 919.0 L959.0 925.0 L954.0 926.0 L950.0 922.0 L950.0 920.0 L942.0 915.0 L930.0 914.0 L925.0 915.0 L920.0 918.0 L917.0 921.0 Z
  M686.0 565.0 L690.0 561.0 L699.0 556.0 L710.0 556.0 L719.0 561.0 L724.0 567.0 L727.0 575.0 L727.0 590.0 L724.0 597.0 L721.0 596.0 L723.0 590.0 L723.0 578.0 L721.0 572.0 L715.0 566.0 L710.0 567.0 L708.0 565.0 L704.0 564.0 L703.0 561.0 L700.0 561.0 L691.0 566.0 L685.0 577.0 L685.0 590.0 L690.0 599.0 L690.0 601.0 L687.0 602.0 L684.0 599.0 L681.0 591.0 L681.0 577.0 Z
  M562.0 519.0 L569.0 519.0 L578.0 523.0 L583.0 529.0 L586.0 537.0 L586.0 548.0 L582.0 559.0 L572.0 568.0 L570.0 568.0 L569.0 565.0 L578.0 556.0 L580.0 549.0 L580.0 538.0 L576.0 536.0 L576.0 532.0 L571.0 527.0 L571.0 525.0 L560.0 525.0 L555.0 527.0 L551.0 531.0 L548.0 530.0 L548.0 527.0 L554.0 522.0 Z
  M882.0 981.0 L880.0 978.0 L876.0 976.0 L861.0 977.0 L854.0 982.0 L854.0 987.0 L855.0 990.0 L860.0 993.0 L871.0 993.0 L881.0 989.0 Z
  M812.0 978.0 L812.0 984.0 L816.0 988.0 L834.0 991.0 L837.0 990.0 L840.0 986.0 L840.0 980.0 L835.0 976.0 L826.0 975.0 L822.0 973.0 L817.0 973.0 Z
  M921.0 968.0 L916.0 964.0 L911.0 964.0 L909.0 966.0 L900.0 969.0 L894.0 975.0 L895.0 981.0 L900.0 984.0 L905.0 984.0 L915.0 980.0 L921.0 975.0 L922.0 973.0 Z
  M735.0 948.0 L736.0 955.0 L744.0 960.0 L753.0 963.0 L760.0 962.0 L763.0 958.0 L763.0 954.0 L761.0 950.0 L756.0 947.0 L753.0 947.0 L746.0 944.0 L739.0 944.0 Z
  M658.0 927.0 L659.0 933.0 L664.0 937.0 L680.0 939.0 L686.0 934.0 L686.0 929.0 L681.0 924.0 L671.0 922.0 L663.0 922.0 Z
  M697.0 936.0 L698.0 942.0 L701.0 945.0 L706.0 947.0 L718.0 949.0 L723.0 947.0 L725.0 944.0 L724.0 938.0 L721.0 935.0 L713.0 932.0 L703.0 931.0 L700.0 932.0 Z
  M493.0 964.0 L490.0 962.0 L484.0 962.0 L472.0 969.0 L469.0 972.0 L468.0 975.0 L469.0 980.0 L473.0 983.0 L479.0 983.0 L488.0 978.0 L493.0 974.0 L494.0 971.0 Z
  M529.0 945.0 L525.0 942.0 L519.0 942.0 L509.0 947.0 L503.0 953.0 L504.0 959.0 L508.0 962.0 L513.0 962.0 L526.0 956.0 L530.0 951.0 Z
  M773.0 964.0 L774.0 971.0 L777.0 974.0 L790.0 979.0 L795.0 979.0 L800.0 975.0 L800.0 969.0 L792.0 963.0 L787.0 962.0 L784.0 960.0 L777.0 960.0 Z
  M458.0 984.0 L453.0 981.0 L450.0 981.0 L443.0 985.0 L436.0 987.0 L432.0 992.0 L433.0 998.0 L438.0 1001.0 L443.0 1001.0 L456.0 995.0 L459.0 991.0 Z
  M567.0 933.0 L563.0 929.0 L551.0 930.0 L545.0 932.0 L541.0 935.0 L540.0 942.0 L541.0 944.0 L546.0 947.0 L554.0 946.0 L564.0 942.0 L567.0 938.0 Z
  M606.0 925.0 L601.0 921.0 L594.0 921.0 L584.0 923.0 L580.0 926.0 L579.0 933.0 L580.0 935.0 L586.0 938.0 L600.0 936.0 L605.0 933.0 Z
  M278.0 983.0 L277.0 990.0 L281.0 995.0 L294.0 1000.0 L298.0 1000.0 L303.0 997.0 L304.0 991.0 L298.0 985.0 L287.0 981.0 L281.0 981.0 Z
  M257.0 949.0 L252.0 954.0 L250.0 965.0 L252.0 971.0 L255.0 975.0 L263.0 976.0 L267.0 972.0 L267.0 967.0 L265.0 964.0 L266.0 953.0 L261.0 949.0 Z
  M619.0 924.0 L619.0 929.0 L624.0 934.0 L641.0 934.0 L646.0 929.0 L645.0 922.0 L638.0 919.0 L625.0 919.0 L621.0 921.0 Z
  M316.0 998.0 L317.0 1005.0 L319.0 1007.0 L325.0 1009.0 L337.0 1010.0 L342.0 1007.0 L343.0 1000.0 L339.0 996.0 L331.0 994.0 L321.0 993.0 Z
  M337.0 924.0 L334.0 921.0 L331.0 920.0 L318.0 922.0 L311.0 926.0 L310.0 932.0 L312.0 935.0 L316.0 937.0 L331.0 935.0 L336.0 932.0 Z
  M299.0 935.0 L294.0 930.0 L285.0 931.0 L274.0 937.0 L273.0 944.0 L277.0 948.0 L288.0 947.0 L298.0 941.0 Z
  M421.0 998.0 L416.0 994.0 L403.0 995.0 L397.0 997.0 L395.0 999.0 L394.0 1005.0 L399.0 1010.0 L413.0 1009.0 L420.0 1005.0 Z
  M355.0 1002.0 L356.0 1009.0 L362.0 1012.0 L376.0 1012.0 L379.0 1011.0 L382.0 1007.0 L382.0 1003.0 L378.0 998.0 L359.0 998.0 Z
  M349.0 922.0 L349.0 928.0 L353.0 932.0 L368.0 933.0 L371.0 932.0 L374.0 928.0 L373.0 920.0 L368.0 918.0 L355.0 918.0 L352.0 919.0 Z
  M542.0 538.0 L545.0 539.0 L544.0 542.0 L544.0 555.0 L546.0 559.0 L545.0 562.0 L542.0 561.0 L539.0 554.0 L539.0 547.0 Z
  M556.0 568.0 L557.0 567.0 L564.0 567.0 L565.0 570.0 L564.0 571.0 L557.0 571.0 Z
  M721.0 598.0 L722.0 601.0 L718.0 605.0 L716.0 605.0 L715.0 602.0 L719.0 598.0 Z"/>
</svg>
